<svg width="35" height="35" fill="none" xmlns="http://www.w3.org/2000/svg"><g clip-path="url(#clip0)" fill="#4945FF"><path d="M20.733 3.859c-.808-1.189-1.521-2.282-2.187-3.28a1.448 1.448 0 00-.38-.381c-.57-.38-1.332-.19-1.712.38-.618.999-1.331 2.045-2.187 3.28-3.756 5.516-9.366 13.836-9.366 18.59 0 3.471 1.426 6.609 3.708 8.891C10.891 33.574 14.03 35 17.5 35c3.47 0 6.609-1.426 8.89-3.708 2.283-2.283 3.71-5.42 3.71-8.891 0-4.755-5.611-13.027-9.367-18.542zm3.946 25.721c-1.854 1.854-4.374 2.948-7.179 2.948-2.805 0-5.325-1.141-7.18-2.948-1.853-1.854-2.947-4.374-2.947-7.18 0-3.993 5.373-11.933 8.938-17.21.428-.618.809-1.236 1.189-1.76.38.524.76 1.142 1.189 1.76 3.565 5.325 8.938 13.217 8.938 17.21 0 2.806-1.141 5.326-2.948 7.18z"/><path d="M24.87 21.545c-.666-.048-1.237.475-1.284 1.141a6.12 6.12 0 01-.904 2.9c-.523.856-1.283 1.617-2.187 2.092-.57.333-.808 1.094-.475 1.664.38.666 1.14.856 1.711.523a8.24 8.24 0 003.043-2.948c.76-1.188 1.189-2.615 1.236-4.088.048-.666-.475-1.236-1.14-1.284z"/></g><defs><clipPath id="clip0"><path fill="#fff" d="M0 0h35v35H0z"/></clipPath></defs></svg>