<svg width="50" height="50" fill="none" xmlns="http://www.w3.org/2000/svg"><path d="M45.169 47.656c.087-.245.144-.506.144-.781s-.057-.536-.144-.781h1.706V44.53h-1.563v-3.906a.78.78 0 00-.78-.781h-2.344v-3.907a.78.78 0 00-.782-.78h-.781V25a.78.78 0 00-.781-.781H10.156a.78.78 0 00-.781.781v22.656H6.25V18.98L25 7.173 43.75 18.98v19.3h1.563V19.963l.364.23A.782.782 0 0046.72 20l2.343-3.125a.78.78 0 00-.206-1.128L25.42.903a.78.78 0 00-.836 0L1.145 15.747a.781.781 0 00-.208 1.128L3.281 20a.781.781 0 001.042.193l.364-.23v27.693H.781v1.563H49.22v-1.563h-4.05zm-41.07-29.17l-1.404-1.872L25 2.488l22.306 14.126-1.405 1.873L25.416 5.588a.784.784 0 00-.832 0L4.099 18.487zm39.651 28.39a.782.782 0 11-1.563 0 .782.782 0 011.563 0zm-9.375 0a.782.782 0 111.563 0 .782.782 0 01-1.563 0zm-1.563-5.469h1.563v1.563h1.563v-1.563H37.5v3.125h-4.688v-3.125zm4.544 4.688h3.413a2.3 2.3 0 00-.144.781c0 .275.056.536.144.781h-3.413c.088-.245.144-.506.144-.781s-.056-.536-.144-.781zm6.394-1.563h-4.688v-3.125h1.563v1.563h1.563v-1.563h1.562v3.125zm-7.813-4.687V36.72H37.5v1.562h1.563V36.72h1.562v3.125h-4.688zm-.78-4.688a.78.78 0 00-.782.782v3.906h-1.563v-5.469a.78.78 0 00-.78-.781h-3.126v1.562h2.344v10.157c0 .432.35.78.781.78h.925a2.317 2.317 0 00-.144.782c0 .275.057.536.144.781h-3.269V43.75a.78.78 0 00-.78-.781h-5.47v-3.907a.78.78 0 00-.78-.78h-5.47v-3.907a.78.78 0 00-.78-.781h-5.47V32.03h28.126v3.125h-3.907zm-24.22 7.813v-3.125H12.5v1.562h1.563v-1.562h1.562v3.125h-4.688zm3.126-6.25v-1.563h1.562v3.125h-4.688v-3.125H12.5v1.563h1.563zm6.25 4.687v-1.562h1.562v3.125h-4.688v-3.125h1.563v1.562h1.563zm-3.125 3.125h1.562v1.563h1.563V44.53h1.562v3.125h-4.688V44.53zm6.25 0H25v1.563h1.563V44.53h1.562v3.125h-4.688V44.53zM39.063 30.47H10.936v-1.563h28.126v1.563zm0-4.688v1.563H10.936V25.78h28.126zm-28.126 18.75H12.5v1.563h1.563V44.53h1.562v3.125h-4.688V44.53z" fill="#4945FF"/><path d="M15.625 16.406a.78.78 0 00-.781.782v4.687a.78.78 0 00.781.781h18.75a.78.78 0 00.781-.781v-4.688a.78.78 0 00-.781-.78h-18.75zm17.969 4.688H16.406v-3.125h17.188v3.125z" fill="#4945FF"/></svg>