<svg width="40" height="60" fill="none" xmlns="http://www.w3.org/2000/svg"><path d="M20 0C8.972 0 0 8.972 0 20c0 3.31.828 6.593 2.401 9.504l16.505 29.851a1.248 1.248 0 002.188 0l16.51-29.86A20.035 20.035 0 0040 20C40 8.972 31.028 0 20 0zm0 30c-5.514 0-10-4.486-10-10s4.486-10 10-10 10 4.486 10 10-4.486 10-10 10z" fill="url(#paint0_linear)"/><defs><linearGradient id="paint0_linear" x1="20" y1="0" x2="20" y2="60" gradientUnits="userSpaceOnUse"><stop stop-color="#6B68FF"/><stop offset="1" stop-color="#5854FF"/></linearGradient></defs></svg>