<svg width="48" height="48" fill="none" xmlns="http://www.w3.org/2000/svg"><path d="M28.188 26.455V6.297a6.297 6.297 0 10-12.594 0v20.149c-5.443 3.472-7.04 10.7-3.568 16.143a11.69 11.69 0 009.834 5.402l.062.009c6.456-.012 11.68-5.256 11.668-11.712a11.69 11.69 0 00-5.402-9.833zM16.972 44.888a9.91 9.91 0 010-17.162.895.895 0 00.448-.779V6.297a4.507 4.507 0 019.014 0v20.65a.896.896 0 00.447.779c4.74 2.736 6.363 8.796 3.627 13.535-2.736 4.74-8.796 6.364-13.536 3.627z" fill="#4945FF"/><path d="M22.817 29.874V16.296a.895.895 0 00-1.79 0v13.578a6.185 6.185 0 00.895 12.308 6.185 6.185 0 00.895-12.308zm-.895 10.509a4.395 4.395 0 01-4.395-4.395 4.404 4.404 0 014.395-4.395 4.395 4.395 0 110 8.79zM36.915 6.154H31.32a.895.895 0 000 1.79h5.595a.895.895 0 000-1.79zm-1.19 4.476H32.44a.895.895 0 000 1.79h3.285a.895.895 0 000-1.79zm1.19 4.475H31.32a.895.895 0 000 1.79h5.595a.895.895 0 000-1.79zm-1.19 4.475H32.44a.895.895 0 000 1.79h3.285a.895.895 0 000-1.79zm1.19 4.476H31.32a.895.895 0 000 1.79h5.595a.895.895 0 100-1.79z" fill="#4945FF"/></svg>