<svg width="35" height="35" viewBox="0 0 35 35" fill="none" xmlns="http://www.w3.org/2000/svg">
<g clip-path="url(#clip0)">
<path d="M20.733 3.85876C19.9247 2.67016 19.2116 1.57665 18.546 0.578232C18.4509 0.4356 18.3082 0.292969 18.1656 0.197881C17.5951 -0.18247 16.8344 0.00770554 16.454 0.578232C15.836 1.57665 15.1228 2.62262 14.267 3.85876C10.5111 9.37385 4.90088 17.694 4.90088 22.4484C4.90088 25.9191 6.32719 29.057 8.6093 31.3391C10.8914 33.5737 14.0293 35 17.5 35C20.9707 35 24.1086 33.5737 26.3907 31.2916C28.6728 29.0095 30.0991 25.8716 30.0991 22.4009C30.0991 17.6465 24.4889 9.37385 20.733 3.85876ZM24.6791 29.58C22.8249 31.4342 20.3051 32.5277 17.5 32.5277C14.6949 32.5277 12.1751 31.3867 10.3209 29.58C8.46667 27.7258 7.37316 25.2059 7.37316 22.4009C7.37316 18.4072 12.7456 10.4674 16.3114 5.18999C16.7393 4.57192 17.1196 3.95385 17.5 3.43086C17.8803 3.95385 18.2607 4.57192 18.6886 5.18999C22.2544 10.5149 27.6268 18.4072 27.6268 22.4009C27.6268 25.2059 26.4858 27.7258 24.6791 29.58Z" fill="#4945FF"/>
<path d="M24.8693 21.545C24.2037 21.4975 23.6331 22.0204 23.5856 22.686C23.538 23.732 23.2052 24.7304 22.6822 25.5862C22.1593 26.442 21.3986 27.2027 20.4952 27.6782C19.9247 28.011 19.687 28.7717 20.0198 29.3422C20.4001 30.0078 21.1608 30.198 21.7314 29.8652C23.0151 29.152 24.061 28.106 24.7742 26.9174C25.5349 25.7289 25.9628 24.3025 26.0103 22.8287C26.0579 22.1631 25.5349 21.5925 24.8693 21.545Z" fill="#4945FF"/>
</g>
<defs>
<clipPath id="clip0">
<rect width="35" height="35" fill="white"/>
</clipPath>
</defs>
</svg>
