<svg width="24" height="22" viewBox="0 0 24 22" fill="none" xmlns="http://www.w3.org/2000/svg">
<path d="M22.2991 2.37508C21.165 1.26774 19.5983 0.714302 17.5981 0.714302C17.0445 0.714302 16.4796 0.810279 15.9038 1.00214C15.3278 1.19414 14.792 1.45317 14.2969 1.77905C13.8012 2.10483 13.3751 2.41078 13.0177 2.69641C12.6608 2.98213 12.3214 3.28578 12 3.6071C11.6785 3.28578 11.3392 2.98213 10.9822 2.69641C10.6249 2.41078 10.1987 2.10502 9.70304 1.77905C9.20749 1.45303 8.67174 1.19418 8.09588 1.00214C7.52007 0.810325 6.95524 0.714302 6.40171 0.714302C4.40164 0.714302 2.83477 1.26788 1.70088 2.37508C0.566992 3.48218 0 5.01781 0 6.98209C0 7.58032 0.105077 8.19662 0.314808 8.83022C0.524539 9.46415 0.763542 10.0044 1.03135 10.4507C1.29911 10.897 1.60275 11.3323 1.94204 11.7564C2.28134 12.1805 2.5293 12.4728 2.68537 12.6335C2.84158 12.7942 2.96438 12.9104 3.05365 12.9819L11.4107 21.0445C11.5714 21.2052 11.7678 21.2858 12 21.2858C12.2321 21.2858 12.4286 21.2052 12.5893 21.0445L20.933 13.0084C22.9777 10.9641 24 8.95519 24 6.9819C24 5.01748 23.4331 3.482 22.2991 2.37508ZM19.7678 11.7497L12 19.2362L4.21893 11.7362C2.54924 10.0669 1.71453 8.48192 1.71453 6.9819C1.71453 6.25879 1.81051 5.62031 2.00237 5.06687C2.19437 4.51335 2.43989 4.07348 2.73899 3.7476C3.03813 3.42163 3.40191 3.15621 3.83047 2.9507C4.25927 2.74538 4.67887 2.60695 5.08951 2.53556C5.50016 2.46425 5.93759 2.42856 6.40194 2.42856C6.86616 2.42856 7.36626 2.54226 7.90196 2.77001C8.43757 2.99766 8.93087 3.28338 9.38171 3.62709C9.83265 3.97103 10.2188 4.2924 10.5404 4.5914C10.8617 4.89068 11.1295 5.16506 11.3438 5.41508C11.5044 5.61159 11.7234 5.70981 12 5.70981C12.2768 5.70981 12.4955 5.61159 12.6563 5.41508C12.8706 5.16506 13.1385 4.89054 13.4599 4.5914C13.7813 4.2924 14.1675 3.97117 14.6183 3.62709C15.0692 3.28338 15.5625 2.99766 16.0984 2.77001C16.6339 2.54231 17.1342 2.42856 17.5984 2.42856C18.0627 2.42856 18.5 2.46425 18.9108 2.53556C19.3216 2.6069 19.7412 2.74538 20.1699 2.9507C20.5985 3.15617 20.9622 3.42177 21.2613 3.7476C21.5604 4.07348 21.806 4.51335 21.998 5.06687C22.1897 5.62031 22.2857 6.25879 22.2857 6.9819C22.2856 8.48192 21.4464 10.0713 19.7678 11.7497Z" fill="#F34141"/>
</svg>
