<svg width="40" height="60" viewBox="0 0 40 60" fill="none" xmlns="http://www.w3.org/2000/svg">
<path d="M20 0C8.97216 0 -6.10352e-05 8.97223 -6.10352e-05 20C-6.10352e-05 23.3106 0.827634 26.593 2.40111 29.5044L18.9063 59.3555C19.126 59.7534 19.5447 60 20 60C20.4552 60 20.874 59.7534 21.0937 59.3555L37.6049 29.4946C39.1723 26.593 40 23.3105 40 19.9999C40 8.97223 31.0278 0 20 0ZM20 30C14.4861 30 10 25.5139 10 20C10 14.4861 14.4861 10.0001 20 10.0001C25.5139 10.0001 29.9999 14.4861 29.9999 20C29.9999 25.5139 25.5139 30 20 30Z" fill="url(#paint0_linear)"/>
<defs>
<linearGradient id="paint0_linear" x1="20" y1="0" x2="20" y2="60" gradientUnits="userSpaceOnUse">
<stop stop-color="#6B68FF"/>
<stop offset="1" stop-color="#5854FF"/>
</linearGradient>
</defs>
</svg>
