<svg width="40" height="30" viewBox="0 0 40 30" fill="none" xmlns="http://www.w3.org/2000/svg">
<path d="M38.6422 13.4774L35.9184 12.2986L33.6054 7.79765C32.9803 6.56525 31.7122 5.79723 30.328 5.80616H26.345V4.68093C26.345 2.64479 24.7197 0.983734 22.6835 0.983734H3.64385C1.60771 0.983734 0.00023762 2.65372 0.00023762 4.68093V21.9167C-0.0176232 23.158 0.973654 24.1761 2.21498 24.1939C2.22391 24.1939 2.23284 24.1939 2.2507 24.1939H2.72402C2.72402 24.2832 2.71509 24.3189 2.71509 24.3725C2.70616 26.9266 4.76908 29.0074 7.32319 29.0163C9.87729 29.0253 11.9581 26.9623 11.967 24.4082C11.967 24.3904 11.967 24.3815 11.967 24.3636C11.967 24.3011 11.967 24.2743 11.9581 24.185H27.3452C27.3452 24.2743 27.3452 24.31 27.3452 24.3636C27.3363 26.9177 29.3992 28.9985 31.9533 29.0074C34.5074 29.0163 36.5882 26.9534 36.5971 24.3993C36.5971 24.3815 36.5971 24.3725 36.5971 24.3547C36.5971 24.2921 36.5971 24.2654 36.5971 24.1761H37.7491C38.9905 24.1761 39.9996 23.1669 39.9996 21.9256C39.9996 21.9167 39.9996 21.9077 39.9996 21.8899V15.5493C40.0175 14.6741 39.4816 13.8435 38.6422 13.4774ZM7.34998 27.2392C5.77822 27.2392 4.5101 25.9711 4.5101 24.3993C4.5101 22.8276 5.77822 21.5594 7.34998 21.5594C8.92173 21.5594 10.1899 22.8276 10.1899 24.3993C10.1899 25.9621 8.9128 27.2392 7.34998 27.2392ZM24.5589 22.4257H11.5383C10.7882 20.7914 9.14499 19.7466 7.34998 19.7555C5.54603 19.7466 3.91176 20.7825 3.16161 22.4257H2.2507C1.97386 22.4257 1.78632 22.2114 1.78632 21.9345V17.3353H24.5589V22.4257ZM24.5589 4.68986V15.5493H1.78632V4.68986C1.78632 3.645 2.59899 2.77875 3.64385 2.77875H22.6835C23.7284 2.78768 24.5678 3.645 24.5589 4.68093V4.68986ZM26.345 7.60118H30.328C31.0335 7.59225 31.6943 7.97626 32.0247 8.61032L33.8108 12.0664H26.345V7.60118ZM31.9801 27.2392C30.4083 27.2392 29.1402 25.9711 29.1402 24.3993C29.1402 22.8276 30.4083 21.5594 31.9801 21.5594C33.5518 21.5594 34.82 22.8276 34.82 24.3993C34.82 25.9621 33.5518 27.2392 31.9801 27.2392ZM38.2225 21.9345C38.2225 22.2114 38.0349 22.4257 37.7581 22.4257H36.1685C35.0879 20.1127 32.3373 19.1125 30.0243 20.1931C29.042 20.6485 28.2472 21.4433 27.7917 22.4257H26.345V13.8525H35.0968L37.9367 15.1027C38.1153 15.192 38.2314 15.3885 38.2225 15.585V21.9345Z" fill="#4945FF"/>
</svg>
